<svg width="35" height="35" viewBox="0 0 35 35" fill="none" xmlns="http://www.w3.org/2000/svg">
<g clip-path="url(#clip0_56_386)">
<path d="M19.377 17.4825C19.377 22.4595 15.3698 26.494 10.427 26.494C5.48408 26.494 1.47656 22.4595 1.47656 17.4825C1.47656 12.5056 5.48377 8.4707 10.427 8.4707C15.3701 8.4707 19.377 12.5056 19.377 17.4825Z" fill="#131313"/>
<path d="M29.1955 17.4825C29.1955 22.1672 27.1919 25.9664 24.7203 25.9664C22.2487 25.9664 20.2451 22.1672 20.2451 17.4825C20.2451 12.7978 22.2484 8.99854 24.72 8.99854C27.1916 8.99854 29.1952 12.7965 29.1952 17.4825" fill="#131313"/>
<path d="M33.2115 17.4826C33.2115 21.6789 32.507 25.0828 31.6376 25.0828C30.7682 25.0828 30.064 21.6798 30.064 17.4826C30.064 13.2853 30.7685 9.88232 31.6376 9.88232C32.5067 9.88232 33.2115 13.285 33.2115 17.4826Z" fill="#131313"/>
</g>
<defs>
<clipPath id="clip0_56_386">
<rect width="35" height="35" fill="white"/>
</clipPath>
</defs>
</svg>
