<svg width="31" height="25" viewBox="0 0 31 25" fill="none" xmlns="http://www.w3.org/2000/svg">
<path d="M9.74927 24.9361C21.4482 24.9361 27.8454 15.5357 27.8454 7.38434C27.8454 7.11733 27.8398 6.85153 27.8274 6.58693C29.0693 5.71617 30.1487 4.62952 31 3.39252C29.8604 3.88383 28.6341 4.21458 27.3475 4.36372C28.6607 3.6 29.6688 2.39186 30.1444 0.951614C28.9155 1.65821 27.5546 2.17177 26.1057 2.449C24.945 1.24989 23.2927 0.5 21.4631 0.5C17.9507 0.5 15.1024 3.26263 15.1024 6.66812C15.1024 7.15221 15.1582 7.62307 15.2673 8.07469C9.98118 7.81671 5.29393 5.36197 2.15732 1.62935C1.61109 2.54101 1.29613 3.59999 1.29613 4.72994C1.29613 6.87017 2.41896 8.75963 4.12646 9.86493C3.08299 9.83366 2.10276 9.55583 1.24591 9.09339C1.24497 9.11927 1.24498 9.14451 1.24498 9.17217C1.24498 12.1597 3.43731 14.6541 6.34762 15.2194C5.81318 15.3607 5.25083 15.4365 4.67051 15.4365C4.2613 15.4365 3.86264 15.3974 3.47513 15.3253C4.28486 17.7764 6.63283 19.56 9.41666 19.6099C7.23981 21.2649 4.49753 22.2505 1.51716 22.2505C1.00441 22.2505 0.497865 22.2222 0 22.1651C2.81483 23.915 6.15728 24.9361 9.74959 24.9361" fill="#131313"/>
</svg>
